<svg width="121" height="80" viewBox="0 0 121 80" fill="none" xmlns="http://www.w3.org/2000/svg">
<g clip-path="url(#clip0)">
<path fill-rule="evenodd" clip-rule="evenodd" d="M80.6805 28.5493C80.6805 40.619 70.8491 50.4449 58.6862 50.4449C46.5621 50.4449 36.6918 40.6576 36.6918 28.5493C36.6918 16.4797 46.5232 6.65378 58.6862 6.65378C70.8103 6.65378 80.6805 16.441 80.6805 28.5493Z" fill="#21317D"/>
<path d="M38.9845 28.5493C38.9845 39.381 47.8056 48.1625 58.6862 48.1625C69.5668 48.1625 78.3878 39.381 78.3878 28.5493C78.3878 17.7176 69.5668 8.93616 58.6862 8.93616C47.8056 8.89748 38.9845 17.7176 38.9845 28.5493Z" fill="url(#paint0_radial)"/>
<path d="M2.17138 70.9845L2.17146 70.9844C1.82284 70.7267 1.54223 70.3882 1.35401 69.998C1.16717 69.6107 1.07698 69.184 1.09111 68.7544V55.9137C1.08165 55.7956 1.09666 55.6768 1.13533 55.5646M2.17138 70.9845L1.13533 55.5646M2.17138 70.9845L2.18118 70.9914C2.94828 71.5304 3.87434 71.7969 4.811 71.7487C5.38081 71.7413 5.94628 71.6494 6.48889 71.4762C6.58446 71.462 6.67718 71.4318 6.76308 71.3866L6.76309 71.3866C6.87199 71.3294 6.96746 71.2495 7.04299 71.1523C7.1185 71.055 7.17233 70.9426 7.20073 70.8227L6.71418 70.7075L7.20073 70.8227C7.22735 70.7102 7.23102 70.5937 7.21162 70.4799L7.00608 68.7723C6.98959 68.5468 6.89955 68.3074 6.66994 68.1477C6.46742 68.0069 6.23253 67.9853 6.06232 67.9853H5.99523L5.93052 68.003C5.78064 68.0439 5.62529 68.0615 5.46999 68.0551L5.45972 68.0547H5.44944C5.37125 68.0547 5.32521 68.044 5.30138 68.0353C5.28118 68.028 5.27576 68.022 5.27429 68.0203L5.27416 68.0202C5.27107 68.0168 5.22514 67.9626 5.22514 67.7631V55.8894C5.22514 55.6866 5.17741 55.4397 4.9916 55.2444C4.80136 55.0445 4.55085 54.9866 4.33513 54.9866H2.01925C1.90146 54.9772 1.78281 54.9921 1.67071 55.0305C1.54684 55.0729 1.43421 55.143 1.34141 55.2356C1.2486 55.3281 1.17808 55.4406 1.13533 55.5646M2.17138 70.9845L1.13533 55.5646" fill="white" stroke="#0E3278"/>
<path d="M18.2756 70.1489L18.4577 69.9989V69.9456C19.469 68.8213 20.031 67.3622 20.031 65.8467C20.031 64.2628 19.4171 62.7405 18.318 61.5977L18.2973 61.5762L18.2742 61.5573C17.0067 60.5205 15.4181 59.954 13.779 59.954C12.1399 59.954 10.5513 60.5205 9.28371 61.5573L9.26375 61.5736L9.24557 61.5919C8.11918 62.7256 7.487 64.2572 7.487 65.8536C7.487 67.4501 8.11918 68.9816 9.24557 70.1153L9.26313 70.133L9.28237 70.1489C10.5479 71.1913 12.1379 71.7614 13.779 71.7614C15.4201 71.7614 17.0101 71.1913 18.2756 70.1489ZM13.7929 68.1955C13.1902 68.1955 12.609 67.9757 12.1583 67.5785C11.7562 67.1067 11.5352 66.5077 11.5352 65.8883C11.5352 65.269 11.7562 64.67 12.1583 64.1982C12.609 63.801 13.1902 63.5811 13.7929 63.5811C14.3956 63.5811 14.9768 63.801 15.4274 64.1982C15.8296 64.67 16.0506 65.269 16.0506 65.8883C16.0506 66.5077 15.8296 67.1067 15.4274 67.5785C14.9768 67.9757 14.3956 68.1955 13.7929 68.1955Z" fill="white" stroke="#0E3278"/>
<path d="M32.416 60.3055L32.413 60.3055L30.1185 60.3193C30.0002 60.3131 29.8817 60.3314 29.7706 60.373C29.6509 60.4178 29.5426 60.4887 29.4536 60.5806C29.4346 60.6002 29.4165 60.6208 29.3995 60.6421C28.5946 60.193 27.6799 59.9642 26.7492 59.9859C25.9615 59.9599 25.1764 60.0904 24.4396 60.3697C23.698 60.6509 23.0202 61.0773 22.4462 61.6239L22.439 61.6308L22.4321 61.6379C21.3375 62.7669 20.7255 64.2759 20.7255 65.8467C20.7255 67.4174 21.3375 68.9265 22.4321 70.0554L22.4378 70.0614L22.4438 70.0671C23.0153 70.6189 23.6927 71.0497 24.4353 71.3339C25.1728 71.6161 25.9596 71.7478 26.7489 71.7214C27.5819 71.7423 28.403 71.562 29.1441 71.2015V71.2044L29.1446 71.2154C29.1557 71.4662 29.1157 71.7166 29.0271 71.9517C28.9404 72.1814 28.809 72.3919 28.6403 72.5708C28.4503 72.7408 28.2287 72.8723 27.988 72.9579C27.7419 73.0454 27.4808 73.0831 27.2199 73.0688L27.2012 73.0678L27.1826 73.0682C26.7251 73.0774 26.2726 72.973 25.8657 72.7647C25.5806 72.6097 25.3628 72.3559 25.2534 72.0517L25.2497 72.0416L25.2456 72.0316C25.1715 71.8504 25.0464 71.6946 24.8857 71.583C24.7251 71.4714 24.5356 71.4085 24.3402 71.4019L24.3317 71.4016H24.3232H21.9832C21.7923 71.4016 21.4523 71.4204 21.2469 71.7086C21.153 71.8404 21.1265 71.9784 21.1163 72.0668C21.107 72.1471 21.107 72.2331 21.1071 72.2931C21.1071 72.2969 21.1071 72.3007 21.1071 72.3043V72.3471L21.1143 72.3892C21.2229 73.0199 21.4604 73.6215 21.812 74.1567C22.1636 74.6918 22.6218 75.1491 23.1579 75.5002L23.1604 75.5018C24.3623 76.2785 25.7734 76.6699 27.2044 76.6237C28.8021 76.689 30.3662 76.1507 31.5837 75.1156L31.5838 75.1156L31.5887 75.1113C32.1521 74.6194 32.5985 74.0084 32.8955 73.3228C33.1913 72.6399 33.3315 71.9001 33.306 71.1568V61.2083C33.306 61.0055 33.2583 60.7586 33.0725 60.5633C32.8822 60.3634 32.6317 60.3055 32.416 60.3055ZM27.027 68.2494L27.012 68.2489L26.9971 68.2494C26.706 68.2577 26.4165 68.2033 26.1485 68.0899C25.8823 67.9772 25.6435 67.809 25.4482 67.5966C25.0343 67.1205 24.816 66.5064 24.8369 65.8771L24.8375 65.8588L24.8368 65.8405C24.8113 65.206 25.0348 64.5863 25.4601 64.1129C25.6552 63.8987 25.8946 63.7292 26.1619 63.616C26.4297 63.5027 26.719 63.4487 27.0098 63.4578L27.0258 63.4583L27.0419 63.4578C27.3248 63.4485 27.6062 63.501 27.8665 63.6117C28.1212 63.72 28.3496 63.8814 28.5362 64.0849C28.924 64.5909 29.1342 65.2099 29.1342 65.8467C29.1342 66.4839 28.9238 67.1033 28.5354 67.6095C28.3477 67.8165 28.1173 67.981 27.8598 68.0916L28.057 68.551L27.8598 68.0916C27.5972 68.2043 27.3128 68.2582 27.027 68.2494Z" fill="white" stroke="#0E3278"/>
<path d="M45.1433 70.15L45.3267 69.9999V69.9455C46.3381 68.8213 46.9001 67.3622 46.9001 65.8467C46.9001 64.2628 46.2862 62.7405 45.1871 61.5977L45.1661 61.5759L45.1426 61.5567C43.874 60.5228 42.2861 59.9581 40.648 59.9581C39.0099 59.9581 37.422 60.5228 36.1534 61.5567L36.1298 61.576L36.1087 61.5979C35.0089 62.743 34.3947 64.2676 34.3947 65.8536C34.3947 67.4397 35.0089 68.9642 36.1087 70.1093L36.1295 70.131L36.1528 70.15C37.4203 71.1867 39.0089 71.7532 40.648 71.7532C42.2871 71.7532 43.8757 71.1867 45.1433 70.15ZM40.6749 68.1938L40.6607 68.1934L40.6466 68.1938C40.3441 68.2031 40.0429 68.1525 39.7602 68.0448C39.4858 67.9403 39.2344 67.7842 39.0195 67.585C38.6216 67.1087 38.4037 66.5084 38.4037 65.8883C38.4037 65.2683 38.6216 64.668 39.0195 64.1916C39.2344 63.9925 39.4858 63.8363 39.7602 63.7318C40.0429 63.6242 40.3442 63.5736 40.6466 63.5828L40.6607 63.5833L40.6749 63.5829C40.9754 63.5751 41.2746 63.6265 41.5551 63.7341C41.8274 63.8386 42.077 63.9939 42.2905 64.1917C42.6884 64.6681 42.9063 65.2683 42.9063 65.8883C42.9063 66.5083 42.6884 67.1086 42.2905 67.585C42.077 67.7828 41.8274 67.9381 41.5551 68.0426C41.2746 68.1501 40.9754 68.2015 40.6749 68.1938Z" fill="white" stroke="#0E3278"/>
<path d="M51.7578 58.8214L51.7649 58.8152L51.7717 58.8088C51.9882 58.6051 52.1608 58.3593 52.2788 58.0865C52.3968 57.8137 52.4577 57.5197 52.4577 57.2226C52.4577 56.9254 52.3968 56.6314 52.2788 56.3586C52.1608 56.0858 51.9882 55.8401 51.7717 55.6363L51.7617 55.6269L51.7511 55.618C51.2888 55.2287 50.7035 55.0153 50.0988 55.0153C49.4942 55.0153 48.9088 55.2287 48.4465 55.618L48.436 55.6269L48.426 55.6363C48.2095 55.8401 48.0369 56.0858 47.9189 56.3586C47.8009 56.6314 47.74 56.9254 47.74 57.2226C47.74 57.5197 47.8009 57.8137 47.9189 58.0865C48.0369 58.3593 48.2095 58.6051 48.426 58.8088L48.4328 58.8152L48.4399 58.8214C48.8993 59.2223 49.4888 59.4431 50.0988 59.4431C50.7089 59.4431 51.2984 59.2223 51.7578 58.8214ZM49.0925 70.9801L49.1012 70.9867L49.1101 70.9929C49.8781 71.5267 50.8013 71.7923 51.736 71.7488C52.311 71.7424 52.8817 71.6506 53.4294 71.4763C53.525 71.462 53.6178 71.4318 53.7038 71.3866C53.8127 71.3294 53.9082 71.2495 53.9837 71.1523C54.0593 71.055 54.1131 70.9426 54.1415 70.8227L53.6549 70.7075L54.1415 70.8227C54.1681 70.7103 54.1717 70.5937 54.1523 70.4799L53.9468 68.7723C53.9303 68.5468 53.8403 68.3075 53.6107 68.1477C53.4081 68.0069 53.1733 67.9853 53.003 67.9853H52.9386L52.8762 68.0017C52.719 68.0429 52.5566 68.0609 52.3941 68.0551L52.3852 68.0547H52.3762C52.303 68.0547 52.2607 68.0444 52.2395 68.0365C52.2213 68.0298 52.217 68.0244 52.2156 68.0229C52.2118 68.0186 52.1659 67.9625 52.1659 67.7632V61.2083C52.1659 61.0055 52.1181 60.7586 51.9323 60.5633C51.7421 60.3634 51.4916 60.3055 51.2758 60.3055H48.96C48.8421 60.2961 48.7235 60.311 48.6114 60.3494C48.4876 60.3918 48.3749 60.462 48.2821 60.5545L48.2821 60.5545C48.1893 60.647 48.1188 60.7595 48.076 60.8835C48.0374 60.9957 48.0224 61.1145 48.0318 61.2326V68.7549C48.0185 69.1817 48.1072 69.6057 48.2904 69.9916C48.4749 70.3804 48.75 70.7192 49.0925 70.9801Z" fill="white" stroke="#0E3278"/>
<path d="M58.9243 61.102C58.6755 60.795 58.3685 60.5373 58.0188 60.3447C57.4905 60.0536 56.8883 59.9242 56.2872 59.9719C55.7269 59.9648 55.1699 60.0581 54.6426 60.2474C54.4428 60.3096 54.2689 60.4364 54.1486 60.6084C54.0287 60.7799 53.9693 60.9862 53.9795 61.195V62.8192C53.9795 63.0588 54.0709 63.3071 54.3009 63.474C54.5011 63.6192 54.7404 63.6525 54.9392 63.6525H55.3988H55.4352L55.4712 63.6472C55.5061 63.6421 55.5416 63.6452 55.575 63.6563C55.6083 63.6673 55.6385 63.6859 55.6631 63.7104C55.6878 63.735 55.7062 63.7649 55.7171 63.7976C55.7279 63.8303 55.731 63.865 55.726 63.899L55.7206 63.9353V63.9719V75.3237C55.7071 75.4391 55.7178 75.5563 55.7524 75.6677C55.7927 75.7973 55.8639 75.9149 55.9598 76.0106C56.0558 76.1062 56.1735 76.177 56.3028 76.2169C56.4141 76.2513 56.5312 76.2619 56.6464 76.2484H58.9507C59.1532 76.2484 59.4 76.2011 59.5955 76.0162C59.7963 75.8263 59.8547 75.5757 59.8547 75.3596V71.2233C60.6005 71.5831 61.4246 71.7652 62.2613 71.7491C63.0556 71.7789 63.8479 71.6488 64.5909 71.3665C65.3387 71.0823 66.021 70.6499 66.5965 70.0952L66.6059 70.0861L66.6148 70.0766C67.6862 68.9301 68.2822 67.4211 68.2822 65.8536C68.2822 64.2861 67.6862 62.7771 66.6148 61.6307L66.6047 61.6199L66.594 61.6097C66.0161 61.0602 65.3334 60.6323 64.5865 60.3511C63.8444 60.0717 63.0539 59.9428 62.2614 59.972C61.5607 59.9589 60.8646 60.0873 60.2149 60.3495C59.7496 60.5373 59.3151 60.791 58.9243 61.102ZM64.2039 65.7817L64.2029 65.8036L64.2038 65.8254C64.2303 66.4728 64.0035 67.1053 63.571 67.5894C63.3705 67.7967 63.1302 67.962 62.8643 68.0752C62.5959 68.1895 62.307 68.2485 62.0151 68.2485C61.7232 68.2485 61.4343 68.1895 61.1659 68.0752C60.9021 67.9629 60.6635 67.7993 60.464 67.5943C60.048 67.0994 59.8308 66.4684 59.8543 65.8232L59.855 65.8037L59.8542 65.7842C59.8273 65.1397 60.0447 64.5088 60.4631 64.0167C60.6628 63.8112 60.9017 63.6473 61.1659 63.5348C61.4343 63.4205 61.7232 63.3615 62.0151 63.3615C62.307 63.3615 62.5959 63.4205 62.8643 63.5348C63.1306 63.6482 63.3713 63.8138 63.572 64.0217C64.0071 64.5026 64.2341 65.1351 64.2039 65.7817Z" fill="white" stroke="#0E3278"/>
<path d="M70.519 70.8165L70.5189 70.8167L70.5309 70.8234C71.696 71.4801 73.0211 71.8005 74.358 71.7492C75.6881 71.7907 77 71.4295 78.1205 70.7127C78.5999 70.4099 78.9927 69.9884 79.2604 69.489C79.5253 68.9948 79.6588 68.4411 79.648 67.8809C79.6666 67.4747 79.6055 67.0689 79.4681 66.686L78.9975 66.8548L79.4681 66.686C79.3286 66.2971 79.1132 65.9397 78.8344 65.6345L78.8345 65.6344L78.8295 65.6291C78.3242 65.0918 77.6695 64.7177 76.9497 64.5544C76.2953 64.3956 75.6328 64.2721 74.9651 64.1845C74.4362 64.1136 73.9171 63.9831 73.4177 63.7954L73.3923 63.7859L73.366 63.7791C73.2846 63.7583 73.2123 63.712 73.1596 63.6475C73.1105 63.5873 73.0808 63.5141 73.0739 63.4374C73.0767 63.4036 73.0884 63.3709 73.108 63.3427C73.1302 63.3109 73.1617 63.2861 73.1985 63.272L73.2174 63.2647L73.2356 63.256C73.5281 63.1154 73.8516 63.0509 74.1759 63.0685L74.1957 63.0696L74.2155 63.0691C74.5473 63.0608 74.8757 63.1369 75.1696 63.2903L75.1846 63.2981L75.2 63.3048C75.4099 63.397 75.5759 63.5659 75.664 63.7761L75.6674 63.7843L75.6711 63.7923C75.7496 63.9627 75.8779 64.1053 76.0387 64.2015L76.2954 63.7724L76.0387 64.2015C76.1945 64.2947 76.374 64.3403 76.555 64.333H78.6045C78.8209 64.333 79.071 64.2707 79.2578 64.0639C79.4357 63.8667 79.4806 63.6204 79.4806 63.4164V63.3744L79.4736 63.3331C79.3845 62.8054 79.1785 62.3043 78.8706 61.8662C78.5632 61.4287 78.1619 61.0651 77.6961 60.8017C76.6244 60.185 75.4016 59.8785 74.1652 59.9163C72.8802 59.8563 71.6078 60.194 70.5223 60.8834L70.5127 60.8895L70.5034 60.8961C70.1128 61.1699 69.7828 61.5209 69.534 61.9275C69.2851 62.3341 69.1228 62.7874 69.0571 63.2593C68.9915 63.7313 69.0239 64.2116 69.1524 64.6705C69.2809 65.1293 69.5026 65.5568 69.8038 65.9264L69.815 65.9402L69.8272 65.9531C70.3191 66.4761 70.9525 66.8446 71.6498 67.0144C71.6438 67.0141 71.6377 67.0138 71.6316 67.0135L71.6219 67.0132H71.6122H69.5646C69.3486 67.0132 69.0764 67.0609 68.8766 67.2823C68.6874 67.4919 68.6607 67.7529 68.6607 67.9298V67.9628L68.665 67.9956C68.7419 68.5746 68.9486 69.1289 69.2696 69.6172C69.5906 70.1055 70.0176 70.5154 70.519 70.8165ZM71.9972 67.0959C72.5641 67.2234 73.1376 67.3199 73.7151 67.3851L73.7151 67.3851L73.7216 67.3858C74.2361 67.4371 74.7433 67.5448 75.2341 67.7069C75.4054 67.772 75.4874 67.8361 75.5246 67.879C75.5503 67.9086 75.5664 67.94 75.5691 67.9959C75.5631 68.045 75.5452 68.0921 75.5167 68.1331L75.9271 68.4187L75.5167 68.1331C75.4851 68.1785 75.4416 68.2147 75.3906 68.2377L75.3906 68.2376L75.3813 68.242C75.069 68.3904 74.7247 68.4598 74.379 68.4441L74.3676 68.4436H74.3562C73.2098 68.4436 72.718 68.0993 72.5377 67.637L72.5319 67.6223L72.5253 67.608C72.4454 67.4361 72.3196 67.2898 72.1619 67.185L71.8852 67.6014L72.1619 67.185C72.1096 67.1502 72.0545 67.1205 71.9972 67.0959Z" fill="white" stroke="#0E3278"/>
<path d="M82.016 70.3288L82.0161 70.3287C81.5479 69.8338 81.1847 69.2497 80.9483 68.6114C80.7133 67.977 80.6083 67.3019 80.6397 66.6264V61.2082C80.6397 61.0054 80.6874 60.7585 80.8732 60.5633C81.0634 60.3633 81.3139 60.3055 81.5297 60.3055H83.8697C84.0855 60.3055 84.336 60.3633 84.5262 60.5633C84.712 60.7585 84.7597 61.0054 84.7597 61.2082V66.2216V66.2318L84.7593 66.242C84.7392 66.7355 84.907 67.2184 85.2293 67.5939C85.3836 67.7549 85.5703 67.8818 85.7773 67.9662C85.9876 68.0519 86.214 68.0917 86.4411 68.0829L86.4617 68.0821L86.4823 68.083C86.7218 68.0934 86.9609 68.0564 87.1859 67.9742C87.4067 67.8935 87.6095 67.7708 87.783 67.613C87.9431 67.446 88.0678 67.2486 88.1497 67.0326C88.2332 66.8124 88.2705 66.5776 88.2594 66.3426L88.2588 66.3307V66.3188V61.2082C88.2588 61.0054 88.3065 60.7585 88.4924 60.5633C88.6826 60.3633 88.9331 60.3055 89.1488 60.3055H91.5167C91.7325 60.3055 91.983 60.3633 92.1732 60.5633C92.359 60.7585 92.4068 61.0054 92.4068 61.2082V67.7492C92.4068 67.9582 92.4539 68.0201 92.4593 68.0263C92.4609 68.0281 92.4642 68.0323 92.479 68.038C92.4968 68.0448 92.535 68.0547 92.6032 68.0547H92.6128L92.6225 68.0551C92.7882 68.0615 92.954 68.0437 93.1146 68.0023C93.2382 67.9686 93.3677 67.9628 93.4939 67.9854C93.6218 68.0083 93.743 68.0598 93.8483 68.1361L93.5547 68.5409L93.8483 68.1361C93.9536 68.2125 94.0403 68.3117 94.1018 68.4265L94.1018 68.4265C94.1606 68.5362 94.1949 68.6573 94.2024 68.7816L94.3673 70.4943C94.3823 70.6035 94.3766 70.7147 94.3502 70.822L82.016 70.3288ZM82.016 70.3288L82.0254 70.3383C82.4996 70.8133 83.068 71.1841 83.6942 71.4269C84.3127 71.6667 84.9742 71.7765 85.637 71.7494C86.8871 71.8094 88.116 71.4457 89.1269 70.7248C89.4426 71.0375 89.8149 71.29 90.2255 71.4681C90.7857 71.711 91.3985 71.8074 92.0062 71.7484C92.5714 71.7365 93.132 71.6432 93.6705 71.4716C93.7671 71.4524 93.8599 71.417 93.9449 71.3669C94.0453 71.3077 94.1329 71.229 94.2025 71.1354L82.016 70.3288Z" fill="white" stroke="#0E3278"/>
<path d="M116.347 71.1437C116.272 71.2441 116.176 71.3266 116.066 71.3855C115.979 71.4319 115.885 71.4627 115.787 71.4768C115.24 71.6488 114.671 71.7404 114.098 71.7487C113.162 71.7947 112.238 71.5289 111.47 70.9928C111.109 70.7428 110.816 70.4079 110.615 70.0175C110.416 69.6282 110.315 69.196 110.322 68.7587V65.4995V65.4877L110.323 65.476C110.346 64.9826 110.181 64.4986 109.861 64.1211C109.716 63.9613 109.538 63.8351 109.338 63.7515C109.136 63.6671 108.918 63.6284 108.699 63.6381L108.679 63.639L108.658 63.6383C108.47 63.6312 108.283 63.6668 108.111 63.7423C107.942 63.8166 107.791 63.9276 107.671 64.0671C107.381 64.4371 107.234 64.8977 107.255 65.3663L107.255 65.3773V65.3884V70.5129C107.255 70.7157 107.207 70.9626 107.022 71.1579C106.831 71.3578 106.581 71.4156 106.365 71.4156H104.035C103.917 71.425 103.799 71.4101 103.687 71.3717L103.687 71.3717C103.563 71.3293 103.45 71.2592 103.357 71.1667C103.265 71.0742 103.194 70.9616 103.151 70.8376L103.151 70.8376C103.113 70.7253 103.098 70.6065 103.107 70.4886V65.4995V65.4872L103.108 65.4748C103.132 64.9817 102.979 64.496 102.675 64.1057C102.553 63.9606 102.4 63.8435 102.228 63.7628C102.054 63.6811 101.864 63.6387 101.671 63.6386L101.661 63.6386L101.651 63.6382C101.437 63.6296 101.223 63.6662 101.025 63.7454C100.829 63.8233 100.653 63.9406 100.506 64.0898C100.199 64.4409 100.042 64.8969 100.067 65.3614L100.068 65.3749V65.3884V70.4886C100.077 70.6066 100.062 70.7254 100.023 70.8376C99.9807 70.9615 99.9102 71.0741 99.8174 71.1667L99.4644 70.8126L99.8174 71.1667C99.7246 71.2592 99.612 71.3293 99.4881 71.3717L99.4881 71.3717C99.376 71.4101 99.2574 71.425 99.1396 71.4156H96.8933C96.6776 71.4156 96.4271 71.3578 96.2369 71.1579C96.051 70.9626 96.0033 70.7157 96.0033 70.5129V63.9719V63.9353L96.0086 63.8991C96.0136 63.865 96.0106 63.8303 95.9998 63.7976C95.9889 63.7649 95.9705 63.735 95.9458 63.7104C95.9212 63.6859 95.891 63.6673 95.8576 63.6563C95.8243 63.6452 95.7887 63.6421 95.7539 63.6472L95.7179 63.6525H95.6815H95.2218C95.0231 63.6525 94.7838 63.6192 94.5836 63.474C94.3535 63.3072 94.2622 63.0588 94.2622 62.8192V61.195C94.252 60.9862 94.3114 60.7799 94.4313 60.6084C94.5516 60.4364 94.7254 60.3096 94.9253 60.2474C95.4528 60.058 96.0101 59.9647 96.5707 59.9719C97.1477 59.9278 97.726 60.0447 98.2405 60.3098C98.5882 60.489 98.8973 60.7309 99.1532 61.0218C99.5714 60.7048 100.036 60.4521 100.532 60.273C101.196 60.0331 101.903 59.9305 102.608 59.9715C103.304 59.942 103.998 60.0743 104.635 60.3582C105.114 60.5716 105.55 60.8664 105.925 61.228C106.354 60.852 106.845 60.5499 107.377 60.3353C108.069 60.0564 108.813 59.9323 109.558 59.9716C110.226 59.944 110.893 60.053 111.517 60.2921L111.338 60.759L111.517 60.2921C112.15 60.5343 112.725 60.9047 113.207 61.38L113.213 61.3856L113.218 61.3914C113.688 61.8856 114.053 62.4699 114.289 63.1089C114.524 63.7437 114.629 64.4194 114.596 65.0954V67.7631C114.596 67.9621 114.641 68.0223 114.647 68.0284C114.649 68.0304 114.652 68.0341 114.665 68.0392C114.68 68.0453 114.715 68.0547 114.778 68.0547H114.79L114.801 68.0553C114.966 68.0629 115.13 68.0451 115.289 68.0024L115.353 67.9853H115.419C115.617 67.9853 115.847 68.0217 116.043 68.1638C116.259 68.3203 116.358 68.5493 116.377 68.7769L116.377 68.7826L116.377 68.7826L116.5 70.485C116.52 70.5906 116.519 70.6991 116.498 70.8047C116.473 70.9275 116.422 71.0432 116.347 71.1437ZM116.347 71.1437C116.347 71.1437 116.347 71.1437 116.347 71.1437L115.946 70.8452L116.347 71.1437ZM103.849 70.8987C103.901 70.9166 103.956 70.9224 104.011 70.9156H106.365C106.63 70.9156 106.755 70.7767 106.755 70.5129L103.849 70.8987ZM103.849 70.8987C103.797 70.8809 103.749 70.8514 103.71 70.8126C103.671 70.7738 103.642 70.7266 103.624 70.6746C103.606 70.6227 103.6 70.5674 103.607 70.5129L103.849 70.8987Z" fill="white" stroke="#0E3278"/>
<path d="M46.1196 26.9487L45.9713 27.5656H46.6057H47.6831V27.5657L47.6907 27.5656C49.3979 27.5396 51.0718 28.0668 52.4778 29.0759C52.5794 29.1518 52.6855 29.2212 52.7955 29.2838L52.9104 29.3491H53.0426H53.1683H53.3005L53.4155 29.2838C53.5243 29.2219 53.6294 29.1532 53.73 29.0783C55.1518 28.0911 56.8235 27.5651 58.5324 27.5651C60.2413 27.5651 61.913 28.0911 63.3348 29.0783C63.4355 29.1533 63.5405 29.2219 63.6494 29.2838L63.7643 29.3491H63.8965H64.0222H64.1544L64.2693 29.2838C64.3793 29.2212 64.4854 29.1518 64.587 29.0759C65.993 28.0668 67.6669 27.5395 69.3741 27.5656V27.5656H69.3818H70.4591H71.0935L70.9452 26.9487C70.2577 24.0894 68.6646 21.547 66.4159 19.7283C64.1669 17.9093 61.3918 16.9193 58.5324 16.9193C55.673 16.9193 52.898 17.9093 50.6489 19.7283C48.4002 21.547 46.8072 24.0894 46.1196 26.9487ZM67.7348 33.2955L67.7458 33.2876L67.7563 33.2791C68.2182 32.907 68.7879 32.7142 69.368 32.7301L69.368 32.7303H69.3818H70.8271H71.3271V32.2303V29.2485V28.7485H70.8271H69.3848C68.0397 28.7324 66.7272 29.1661 65.6427 29.9823L65.6401 29.9842C65.1644 30.3471 64.5911 30.5414 64.0042 30.5414C63.4174 30.5414 62.8441 30.3471 62.3683 29.9842L62.3684 29.9841L62.3573 29.976C61.2497 29.1783 59.9305 28.7494 58.5773 28.7494C57.224 28.7494 55.9049 29.1783 54.7973 29.976L54.7972 29.9759L54.7863 29.9842C54.3105 30.3471 53.7372 30.5414 53.1504 30.5414C52.5635 30.5414 51.9902 30.3471 51.5145 29.9842L51.512 29.9823C50.4146 29.1561 49.0841 28.7219 47.723 28.7485H46.2377H45.7377V29.2485V32.2303V32.7303H46.2377H47.6831V32.7304L47.6968 32.7301C48.277 32.7142 48.8467 32.907 49.3085 33.2791L49.3188 33.2874L49.3295 33.2951C50.4353 34.0936 51.7533 34.523 53.1055 34.523C54.4577 34.523 55.7757 34.0936 56.8815 33.2951L56.8918 33.2877L56.9017 33.2798C57.3646 32.9084 57.9346 32.7154 58.5153 32.7301L58.529 32.7304L58.5427 32.73C59.1224 32.7128 59.6918 32.9056 60.1525 33.2784L60.1634 33.2873L60.1748 33.2955C61.2824 34.0932 62.6016 34.5222 63.9548 34.5222C65.3081 34.5222 66.6273 34.0932 67.7348 33.2955ZM67.7348 38.6273L67.7458 38.6194L67.7563 38.6109C68.2182 38.2388 68.7879 38.046 69.368 38.0619L69.368 38.0621H69.3818H70.8271H71.3271V37.5621V34.5804V34.0804H70.8271H69.3848C68.0396 34.0642 66.7272 34.4979 65.6427 35.3141L65.6401 35.3161C65.1644 35.679 64.5911 35.8733 64.0042 35.8733C63.4174 35.8733 62.8441 35.679 62.3683 35.3161L62.3684 35.3159L62.3573 35.3079C61.2497 34.5101 59.9305 34.0812 58.5773 34.0812C57.224 34.0812 55.9049 34.5101 54.7973 35.3079L54.7972 35.3077L54.7863 35.3161C54.3105 35.679 53.7372 35.8733 53.1504 35.8733C52.5635 35.8733 51.9902 35.679 51.5145 35.3161L51.512 35.3142C50.4146 34.4879 49.0841 34.0537 47.723 34.0804H46.2377H45.7377V34.5804V37.5621V38.0621H46.2377H47.6831V38.0623L47.6968 38.0619C48.277 38.046 48.8467 38.2388 49.3085 38.6109L49.3188 38.6192L49.3295 38.627C50.4353 39.4254 51.7533 39.8548 53.1055 39.8548C54.4577 39.8548 55.7757 39.4254 56.8815 38.627L56.8918 38.6196L56.9017 38.6116C57.3646 38.2402 57.9346 38.0473 58.5153 38.0619L58.529 38.0623L58.5427 38.0619C59.1224 38.0447 59.6918 38.2374 60.1525 38.6103L60.1634 38.6191L60.1748 38.6273C61.2824 39.4251 62.6016 39.854 63.9548 39.854C65.3081 39.854 66.6273 39.4251 67.7348 38.6273Z" fill="white" stroke="#0E3278"/>
</g>
<defs>
<radialGradient id="paint0_radial" cx="0" cy="0" r="1" gradientUnits="userSpaceOnUse" gradientTransform="translate(58.6897 28.5431) scale(19.7195 19.6309)">
<stop stop-color="#69ADE5"/>
<stop offset="1" stop-color="#0062A4"/>
</radialGradient>
<clipPath id="clip0">
<rect width="119.065" height="80" fill="white" transform="translate(0.941269)"/>
</clipPath>
</defs>
</svg>
