<svg width="51" height="48" viewBox="0 0 51 48" fill="none" xmlns="http://www.w3.org/2000/svg">
<path d="M37.09 42.43C36.8981 42.4326 36.715 42.5107 36.5803 42.6473C36.4455 42.7839 36.37 42.9681 36.37 43.16V45.82C36.37 46.0136 36.2931 46.1993 36.1562 46.3362C36.0193 46.4731 35.8336 46.55 35.64 46.55H2.18C1.98813 46.5474 1.80501 46.4693 1.67026 46.3327C1.53552 46.1961 1.45998 46.0119 1.46 45.82V2.18C1.45998 1.98811 1.53552 1.80393 1.67026 1.66732C1.80501 1.5307 1.98813 1.45263 2.18 1.45H9.46V2.18C9.46 3.14366 9.84212 4.06799 10.5226 4.75034C11.2031 5.43269 12.1263 5.81735 13.09 5.82H24.73C25.6946 5.81736 26.6189 5.43301 27.301 4.75095C27.983 4.06889 28.3674 3.14458 28.37 2.18V1.45H35.64C35.8336 1.45 36.0193 1.52691 36.1562 1.66381C36.2931 1.80071 36.37 1.98639 36.37 2.18V16.37C36.37 16.5619 36.4455 16.7461 36.5803 16.8827C36.715 17.0193 36.8981 17.0974 37.09 17.1C37.1859 17.1 37.2808 17.0811 37.3694 17.0444C37.4579 17.0077 37.5384 16.954 37.6062 16.8862C37.674 16.8184 37.7277 16.7379 37.7644 16.6494C37.8011 16.5608 37.82 16.4659 37.82 16.37V2.18C37.8174 1.60264 37.5868 1.04967 37.1786 0.641413C36.7703 0.233153 36.2174 0.00263039 35.64 0L2.18 0C1.60264 0.00263039 1.04967 0.233153 0.641413 0.641413C0.233153 1.04967 0.00263039 1.60264 0 2.18L0 45.82C0.00263039 46.3974 0.233153 46.9503 0.641413 47.3586C1.04967 47.7668 1.60264 47.9974 2.18 48H35.64C36.2174 47.9974 36.7703 47.7668 37.1786 47.3586C37.5868 46.9503 37.8174 46.3974 37.82 45.82V43.16C37.82 42.9664 37.7431 42.7807 37.6062 42.6438C37.4693 42.5069 37.2836 42.43 37.09 42.43ZM26.91 1.43V2.16C26.9074 2.73736 26.6768 3.29033 26.2686 3.69859C25.8603 4.10685 25.3074 4.33737 24.73 4.34H13.09C12.5126 4.33737 11.9597 4.10685 11.5514 3.69859C11.1432 3.29033 10.9126 2.73736 10.91 2.16V1.45L26.91 1.43Z" fill="white"/>
<path d="M32.3 11C32.3 10.8081 32.2245 10.624 32.0897 10.4873C31.955 10.3507 31.7719 10.2726 31.58 10.27H14.24C14.0464 10.27 13.8607 10.3469 13.7238 10.4838C13.5869 10.6207 13.51 10.8064 13.51 11C13.51 11.1936 13.5869 11.3793 13.7238 11.5162C13.8607 11.6531 14.0464 11.73 14.24 11.73H31.58C31.7719 11.7274 31.955 11.6493 32.0897 11.5127C32.2245 11.3761 32.3 11.1919 32.3 11Z" fill="white"/>
<path d="M40.1581 29.1868L36.4343 33.804L34.7316 31.8796C34.6487 31.7946 34.5391 31.7472 34.4253 31.7472C34.3115 31.7472 34.202 31.7946 34.1191 31.8796C34.0425 31.9708 34 32.09 34 32.2137C34 32.3374 34.0425 32.4566 34.1191 32.5478L36.1525 34.853C36.2386 34.947 36.3553 34.9999 36.4771 35C36.5384 34.999 36.5989 34.9842 36.6547 34.9566C36.7106 34.929 36.7606 34.8892 36.8017 34.8396L40.8808 29.8283C40.921 29.7805 40.9522 29.7245 40.9726 29.6635C40.993 29.6025 41.0021 29.5378 40.9996 29.4729C40.997 29.4081 40.9828 29.3444 40.9577 29.2856C40.9326 29.2268 40.8971 29.1739 40.8532 29.13C40.8094 29.0862 40.7581 29.0521 40.7022 29.0299C40.6463 29.0077 40.587 28.9977 40.5275 29.0005C40.4681 29.0032 40.4097 29.0188 40.3558 29.0462C40.3019 29.0736 40.2534 29.1123 40.2132 29.1601L40.1581 29.1868Z" fill="white"/>
<path d="M8.42999 8.12001C7.85276 8.11806 7.28798 8.28782 6.80749 8.60772C6.327 8.92761 5.9525 9.38318 5.73162 9.91649C5.51074 10.4498 5.45346 11.0367 5.56706 11.6027C5.68066 12.1687 5.96002 12.688 6.3696 13.0948C6.77918 13.5015 7.30048 13.7773 7.8672 13.887C8.43393 13.9967 9.02047 13.9353 9.55223 13.7108C10.084 13.4862 10.537 13.1085 10.8535 12.6259C11.1701 12.1432 11.3359 11.5772 11.33 11C11.3221 10.2352 11.0134 9.50418 10.4707 8.96521C9.92798 8.42623 9.19487 8.1226 8.42999 8.12001ZM8.42999 12.49C8.14211 12.4919 7.86008 12.4087 7.61937 12.2507C7.37866 12.0928 7.19002 11.8672 7.07716 11.6024C6.9643 11.3375 6.93227 11.0452 6.98508 10.7622C7.03789 10.4792 7.17319 10.2181 7.37398 10.0118C7.57476 9.80549 7.83206 9.66313 8.11353 9.60264C8.395 9.54214 8.68807 9.56622 8.95589 9.67183C9.22371 9.77744 9.45434 9.95988 9.61876 10.1962C9.78319 10.4325 9.87407 10.7122 9.87999 11C9.88397 11.1934 9.84948 11.3857 9.77852 11.5656C9.70755 11.7456 9.60154 11.9096 9.46663 12.0483C9.33172 12.1869 9.1706 12.2974 8.99264 12.3732C8.81469 12.449 8.62343 12.4887 8.42999 12.49Z" fill="white"/>
<path d="M19.94 19.76H14.24C14.0624 19.7809 13.8986 19.8663 13.7798 19.9999C13.6609 20.1336 13.5953 20.3062 13.5953 20.485C13.5953 20.6638 13.6609 20.8365 13.7798 20.9701C13.8986 21.1037 14.0624 21.1891 14.24 21.21H19.94C20.0424 21.222 20.1461 21.2123 20.2444 21.1813C20.3427 21.1504 20.4334 21.099 20.5104 21.0305C20.5874 20.962 20.649 20.878 20.6913 20.784C20.7335 20.69 20.7553 20.5881 20.7553 20.485C20.7553 20.3819 20.7335 20.28 20.6913 20.186C20.649 20.092 20.5874 20.008 20.5104 19.9395C20.4334 19.871 20.3427 19.8196 20.2444 19.7887C20.1461 19.7577 20.0424 19.748 19.94 19.76Z" fill="white"/>
<path d="M8.43 17.58C7.85403 17.578 7.29043 17.747 6.81057 18.0655C6.33071 18.3841 5.95617 18.8379 5.73439 19.3694C5.5126 19.901 5.45355 20.4864 5.5647 21.0515C5.67585 21.6167 5.95221 22.1361 6.35878 22.5441C6.76535 22.9521 7.28384 23.2302 7.84859 23.3433C8.41335 23.4564 8.99897 23.3994 9.53128 23.1794C10.0636 22.9595 10.5187 22.5865 10.8389 22.1077C11.1591 21.629 11.33 21.0659 11.33 20.49C11.33 19.7199 11.0248 18.9813 10.4812 18.4358C9.93764 17.8904 9.20004 17.5826 8.43 17.58ZM8.43 21.94C8.14039 21.942 7.85675 21.8578 7.61512 21.6981C7.3735 21.5384 7.18482 21.3105 7.07308 21.0433C6.96134 20.7761 6.93158 20.4818 6.9876 20.1976C7.04361 19.9135 7.18287 19.6524 7.38765 19.4476C7.59244 19.2428 7.8535 19.1036 8.13764 19.0476C8.42178 18.9916 8.71616 19.0213 8.98335 19.1331C9.25053 19.2448 9.47845 19.4335 9.63811 19.6751C9.79778 19.9167 9.88197 20.2004 9.88 20.49C9.88 20.8745 9.72723 21.2434 9.4553 21.5153C9.18337 21.7872 8.81456 21.94 8.43 21.94Z" fill="white"/>
<path d="M14.24 30.67H19.94C20.1336 30.67 20.3193 30.5931 20.4562 30.4562C20.5931 30.3193 20.67 30.1336 20.67 29.94C20.67 29.7464 20.5931 29.5607 20.4562 29.4238C20.3193 29.2869 20.1336 29.21 19.94 29.21H14.24C14.0464 29.21 13.8607 29.2869 13.7238 29.4238C13.5869 29.5607 13.51 29.7464 13.51 29.94C13.51 30.1336 13.5869 30.3193 13.7238 30.4562C13.8607 30.5931 14.0464 30.67 14.24 30.67Z" fill="white"/>
<path d="M8.43 27C7.85403 26.998 7.29043 27.167 6.81057 27.4856C6.33071 27.8041 5.95617 28.2579 5.73439 28.7895C5.5126 29.321 5.45355 29.9064 5.5647 30.4716C5.67585 31.0367 5.95221 31.5562 6.35878 31.9641C6.76535 32.3721 7.28384 32.6503 7.84859 32.7633C8.41335 32.8764 8.99897 32.8194 9.53128 32.5995C10.0636 32.3795 10.5187 32.0065 10.8389 31.5278C11.1591 31.049 11.33 30.486 11.33 29.91C11.33 29.14 11.0248 28.4013 10.4812 27.8559C9.93764 27.3104 9.20004 27.0027 8.43 27ZM8.43 31.37C8.14082 31.372 7.85756 31.2881 7.61616 31.1288C7.37475 30.9696 7.18606 30.7423 7.07402 30.4757C6.96198 30.2091 6.93164 29.9152 6.98684 29.6314C7.04204 29.3475 7.1803 29.0864 7.38408 28.8812C7.58786 28.676 7.84798 28.536 8.13147 28.4788C8.41495 28.4217 8.70902 28.45 8.97638 28.5602C9.24374 28.6704 9.47236 28.8575 9.63323 29.0979C9.7941 29.3382 9.87999 29.6208 9.88 29.91C9.88398 30.1034 9.84948 30.2957 9.77852 30.4756C9.70756 30.6556 9.60154 30.8197 9.46663 30.9583C9.33172 31.0969 9.1706 31.2074 8.99265 31.2832C8.81469 31.359 8.62343 31.3987 8.43 31.4V31.37Z" fill="white"/>
<path d="M14.24 40.12H25.76C25.951 40.12 26.1341 40.0441 26.2691 39.9091C26.4041 39.7741 26.48 39.5909 26.48 39.4C26.48 39.2081 26.4045 39.0239 26.2697 38.8873C26.135 38.7507 25.9519 38.6726 25.76 38.67H14.24C14.0481 38.6726 13.865 38.7507 13.7303 38.8873C13.5955 39.0239 13.52 39.2081 13.52 39.4C13.52 39.5909 13.5959 39.7741 13.7309 39.9091C13.8659 40.0441 14.049 40.12 14.24 40.12Z" fill="white"/>
<path d="M8.43 36.49C7.85403 36.488 7.29043 36.657 6.81057 36.9756C6.33071 37.2941 5.95617 37.7479 5.73439 38.2795C5.5126 38.811 5.45355 39.3964 5.5647 39.9616C5.67585 40.5267 5.95221 41.0462 6.35878 41.4541C6.76535 41.8621 7.28384 42.1402 7.84859 42.2533C8.41335 42.3664 8.99897 42.3094 9.53128 42.0894C10.0636 41.8695 10.5187 41.4965 10.8389 41.0177C11.1591 40.539 11.33 39.976 11.33 39.4C11.33 38.63 11.0248 37.8913 10.4812 37.3459C9.93764 36.8004 9.20004 36.4927 8.43 36.49ZM8.43 40.85C8.14039 40.852 7.85675 40.7678 7.61512 40.6081C7.3735 40.4485 7.18482 40.2205 7.07308 39.9534C6.96134 39.6862 6.93158 39.3918 6.9876 39.1077C7.04361 38.8235 7.18287 38.5624 7.38765 38.3577C7.59244 38.1529 7.8535 38.0136 8.13764 37.9576C8.42178 37.9016 8.71616 37.9313 8.98335 38.0431C9.25053 38.1548 9.47845 38.3435 9.63811 38.5851C9.79778 38.8268 9.88197 39.1104 9.88 39.4C9.88 39.5904 9.84249 39.779 9.76962 39.9549C9.69675 40.1308 9.58995 40.2907 9.4553 40.4253C9.32066 40.56 9.16081 40.6668 8.98489 40.7396C8.80896 40.8125 8.62041 40.85 8.43 40.85Z" fill="white"/>
<path d="M44.3903 34.3618L49.8629 29.0174C49.9871 28.8973 50.0756 28.745 50.1186 28.5776C50.1616 28.4102 50.1574 28.2342 50.1064 28.069C50.0505 27.9036 49.9505 27.7565 49.8173 27.6436C49.6841 27.5307 49.5226 27.4563 49.3502 27.4282L41.7758 26.326L38.3923 19.4693C38.3055 19.3261 38.1833 19.2076 38.0373 19.1254C37.8914 19.0432 37.7267 19 37.5593 19C37.3918 19 37.2271 19.0432 37.0812 19.1254C36.9353 19.2076 36.813 19.3261 36.7262 19.4693L33.3299 26.326L25.7683 27.4282C25.5994 27.4589 25.4423 27.5354 25.314 27.6494C25.1858 27.7634 25.0913 27.9105 25.0411 28.0746C24.9908 28.2387 24.9866 28.4134 25.029 28.5797C25.0713 28.746 25.1586 28.8974 25.2813 29.0174L30.7666 34.3618L29.485 41.8978C29.4554 42.0709 29.4745 42.2489 29.5401 42.4118C29.6058 42.5748 29.7153 42.7163 29.8567 42.8206C29.9994 42.921 30.167 42.9801 30.3411 42.9914C30.5152 43.0027 30.6891 42.9658 30.8435 42.8847L37.6105 39.3217L44.3775 42.8847C44.511 42.9585 44.6607 42.9982 44.8133 43C44.9504 43.0003 45.086 42.9705 45.2103 42.9126C45.3347 42.8547 45.4447 42.7702 45.5328 42.665C45.6208 42.5598 45.6847 42.4366 45.7198 42.304C45.7549 42.1714 45.7605 42.0328 45.736 41.8978L44.3903 34.3618ZM42.4679 34.1952L43.5316 40.3598L37.995 37.4505C37.8621 37.3753 37.712 37.3357 37.5593 37.3357C37.4065 37.3357 37.2564 37.3753 37.1235 37.4505L31.5869 40.3598L32.6506 34.1952C32.676 34.0469 32.6648 33.8946 32.6179 33.7517C32.571 33.6087 32.4898 33.4794 32.3815 33.375L27.8445 29.0046L34.0348 28.1075C34.1858 28.0878 34.3294 28.0306 34.4526 27.941C34.5758 27.8515 34.6745 27.7324 34.7397 27.5948L37.508 21.9941L40.2763 27.5948C40.3405 27.7331 40.439 27.8528 40.5623 27.9425C40.6857 28.0322 40.8298 28.089 40.9812 28.1075L47.1587 29.0046L42.737 33.3493C42.6247 33.4563 42.5411 33.5899 42.4941 33.7378C42.447 33.8856 42.438 34.043 42.4679 34.1952Z" fill="white"/>
</svg>
