<svg width="52" height="44" viewBox="0 0 52 44" fill="none" xmlns="http://www.w3.org/2000/svg">
<path d="M47.0838 22.3993C48.5262 19.7153 49.3113 16.7294 49.375 13.6853C49.3696 10.8593 48.4813 8.10503 46.8337 5.80512C45.186 3.50521 42.8607 1.77379 40.1806 0.851307C37.5006 -0.0711728 34.5989 -0.138923 31.8784 0.657467C29.158 1.45386 26.7539 3.07486 25 5.29535C23.2461 3.07486 20.842 1.45386 18.1216 0.657467C15.4011 -0.138923 12.4994 -0.0711728 9.81937 0.851307C7.13934 1.77379 4.81402 3.50521 3.16635 5.80512C1.51868 8.10503 0.630445 10.8593 0.625 13.6853C0.625 28.8294 23.375 42.8397 24.415 43.4876C24.6033 43.5941 24.816 43.6501 25.0325 43.6501C25.249 43.6501 25.4617 43.5941 25.65 43.4876C28.2382 41.8616 30.7338 40.0934 33.125 38.1912C34.1355 39.2702 35.3611 40.1267 36.7231 40.7059C38.0852 41.2851 39.5536 41.5742 41.0343 41.5547C42.515 41.5351 43.9753 41.2074 45.3215 40.5924C46.6677 39.9774 47.8701 39.0888 48.8515 37.9836C49.833 36.8784 50.5719 35.5809 51.0209 34.1744C51.4699 32.7679 51.619 31.2833 51.4586 29.816C51.2983 28.3487 50.8321 26.931 50.0899 25.6538C49.3477 24.3765 48.3459 23.268 47.1488 22.3993H47.0838ZM25 41.0743C21.3763 38.7257 2.965 26.2055 2.965 13.6853C2.95955 11.2144 3.77114 8.81043 5.27422 6.84541C6.7773 4.8804 8.88811 3.46379 11.2802 2.81472C13.6722 2.16566 16.2122 2.32029 18.5072 3.25472C20.8022 4.18914 22.7243 5.85128 23.9763 7.98403C24.0917 8.14778 24.245 8.28143 24.4232 8.37369C24.6014 8.46596 24.7992 8.51412 25 8.51412C25.2008 8.51412 25.3986 8.46596 25.5768 8.37369C25.755 8.28143 25.9083 8.14778 26.0238 7.98403C27.2757 5.85128 29.1979 4.18914 31.4929 3.25472C33.7878 2.32029 36.3278 2.16566 38.7199 2.81472C41.1119 3.46379 43.2227 4.8804 44.7258 6.84541C46.2289 8.81043 47.0405 11.2144 47.035 13.6853C46.967 16.3117 46.2825 18.8856 45.0363 21.2007C43.6923 20.5996 42.2355 20.2904 40.7625 20.2937C38.8853 20.2883 37.0402 20.7793 35.4156 21.7168C33.7909 22.6542 32.4448 24.0045 31.5147 25.6298C30.5846 27.255 30.1037 29.0972 30.1211 30.9682C30.1385 32.8392 30.6536 34.6722 31.6138 36.28C29.4913 37.9877 27.2839 39.5878 25 41.0743ZM40.7625 39.1468C39.1227 39.15 37.5188 38.6683 36.1538 37.7626C34.7888 36.8569 33.724 35.5679 33.0943 34.0588C32.4645 32.5497 32.2981 30.8883 32.616 29.2849C32.934 27.6814 33.722 26.208 34.8804 25.0512C36.0387 23.8943 37.5154 23.106 39.1235 22.7859C40.7315 22.4659 42.3987 22.6285 43.914 23.2533C45.4293 23.878 46.7246 24.9367 47.6359 26.2955C48.5473 27.6543 49.0338 29.252 49.0338 30.8864C49.0338 33.0744 48.1628 35.173 46.6121 36.7217C45.0615 38.2704 42.9577 39.1426 40.7625 39.1468Z" fill="white"/>
<path d="M40.5696 26.0001L45 28.353V33.6471L40.5195 36.0001L36 33.6471V28.353L40.5696 26.0001ZM36.5625 29.2612V33.2829L40.5 35.3324V31.0242L40.4976 31.0259L36.5625 29.2612ZM44.4375 29.2606L41.0625 30.7724V35.0559L44.4375 33.2843V29.2606ZM38.5307 27.7054L36.6379 28.6801L40.4977 30.386L42.1616 29.6512L38.5307 27.7054ZM40.5657 26.6577L39.1573 27.383L42.8169 29.3618L44.3683 28.6771L40.5657 26.6577Z" fill="white"/>
</svg>
