<svg width="62" height="65" viewBox="0 0 62 65" fill="none" xmlns="http://www.w3.org/2000/svg">
<path d="M50.3992 57.776H38.3475C37.5553 57.776 36.9072 57.1308 36.9072 56.3358C36.9072 55.5408 37.5553 54.8956 38.3475 54.8956H50.3992C53.2624 54.8956 56.284 53.0002 57.9086 50.1745C59.4727 47.4727 59.5072 43.7655 58.0036 41.1674L49.1117 25.7483C48.7113 25.0599 48.9475 24.1785 49.6417 23.7781C50.333 23.3748 51.2115 23.611 51.6119 24.3081L60.501 39.73C62.5259 43.2384 62.4914 48.0171 60.4117 51.6176C58.2485 55.3565 54.3224 57.776 50.3992 57.776Z" fill="white"/>
<path d="M12.9188 24.0546C12.674 24.0546 12.4263 23.9941 12.1987 23.8616C11.5103 23.4641 11.2741 22.5885 11.6745 21.8943L21.0129 5.71481C23.0551 2.18338 26.8487 0 30.9245 0C35.0032 0 38.7996 2.1949 40.8361 5.71769L47.8183 17.8041C48.2187 18.4925 47.9825 19.3739 47.2826 19.7714C46.597 20.1747 45.7127 19.9413 45.3181 19.2443L38.3474 7.15792C36.8237 4.51654 33.9749 2.88045 30.9274 2.88045C27.8799 2.88045 25.0311 4.51366 23.5073 7.15503L14.1661 23.3345C13.9011 23.7954 13.4143 24.0546 12.9188 24.0546Z" fill="white"/>
<path d="M29.709 57.776H11.4584C7.65047 57.776 3.75611 55.3017 1.5468 51.4707C-0.5156 47.9134 -0.5156 43.2989 1.5468 39.7358L7.88667 28.1334C8.26977 27.4363 9.1483 27.1799 9.84537 27.563C10.5424 27.9432 10.7959 28.8247 10.4128 29.5217L4.05567 41.1501C2.50887 43.8376 2.50887 47.392 4.03839 50.0449C5.74938 52.9945 8.65863 54.9071 11.4584 54.9071H29.709C30.5011 54.9071 31.1492 55.5523 31.1492 56.3474C31.1492 57.1424 30.504 57.776 29.709 57.776Z" fill="white"/>
<path d="M26.9639 64.9772C26.6758 64.9772 26.3907 64.8936 26.1401 64.7179C25.4862 64.2628 25.3278 63.3641 25.7829 62.7131L30.2332 56.3416L25.7886 50.0593C25.3335 49.4026 25.4891 48.5096 26.1314 48.0516C26.7795 47.5937 27.6782 47.7434 28.1391 48.3944L33.1684 55.5062C33.5169 56.0046 33.5169 56.6642 33.1741 57.1625L28.1449 64.3636C27.8655 64.764 27.4161 64.9772 26.9639 64.9772Z" fill="white"/>
<path d="M11.8415 25.9298C11.2366 25.9298 10.6893 25.5409 10.482 24.9648L7.94428 17.6859C7.67928 16.937 8.07678 16.1132 8.82858 15.854C9.58037 15.5775 10.4042 15.9865 10.6663 16.7383L12.8151 22.9111L19.4978 22.0268C20.2755 21.9202 21.01 22.4732 21.1195 23.2683C21.2203 24.0546 20.6643 24.7805 19.8751 24.8899L12.0288 25.924C11.9654 25.9269 11.9049 25.9298 11.8415 25.9298Z" fill="white"/>
<path d="M45.8193 30.4118C45.6004 30.4118 45.3815 30.36 45.1712 30.2563C44.4569 29.8962 44.1688 29.0234 44.5289 28.3206L47.7089 22.0527C47.9681 21.5429 48.501 21.2289 49.0713 21.2721L56.909 21.6956C57.7012 21.7445 58.3089 22.4186 58.2715 23.2107C58.234 24.0028 57.5571 24.7056 56.7593 24.5703L49.8606 24.1929L47.1155 29.6139C46.8505 30.1238 46.3436 30.4118 45.8193 30.4118Z" fill="white"/>
</svg>
