<svg width="17" height="18" viewBox="0 0 17 18" fill="none" xmlns="http://www.w3.org/2000/svg">
<path d="M14.7902 5.99832L5.13021 0.458317C4.6075 0.156477 4.01421 -0.00164499 3.41061 1.29041e-05C2.807 0.0016708 2.21459 0.163049 1.69354 0.467756C1.17249 0.772464 0.741368 1.20964 0.443959 1.73489C0.14655 2.26014 -0.00654797 2.85475 0.000214711 3.45832V14.5783C0.000214711 15.4854 0.360535 16.3552 1.00191 16.9966C1.64328 17.638 2.51317 17.9983 3.42021 17.9983C4.02065 17.9973 4.6103 17.8387 5.13021 17.5383L14.7902 11.9983C15.3093 11.6979 15.7402 11.2663 16.0398 10.7468C16.3394 10.2272 16.4971 9.63804 16.4971 9.03832C16.4971 8.43859 16.3394 7.84941 16.0398 7.32988C15.7402 6.81035 15.3093 6.37873 14.7902 6.07832V5.99832Z" fill="white"/>
</svg>
